<svg version="1.0" xmlns="http://www.w3.org/2000/svg" width="50" height="46" viewBox="0 0 300.000000 277.000000" preserveAspectRatio="xMidYMid meet">
<g transform="translate(0.000000,277.000000) scale(0.100000,-0.100000)" fill="#000000" stroke="none">
<path d="M1323 2387 c-121 -72 -121 -73 -105 -95 l17 -22 107 65 c59 36 109 65 111 65 3 0 53 -30 113 -66 100 -62 109 -65 121 -48 7 10 13 21 13 25 0 7 -234 149 -247 149 -4 0 -63 -33 -130 -73z" stroke-width="4"/>
<path d="M678 1999 l-118 -71 0 -149 0 -149 25 0 25 0 0 115 c0 63 2 115 4 115 2 0 46 -26 96 -57 88 -54 93 -56 106 -38 8 10 14 22 14 25 0 3 -43 31 -95 61 -52 30 -94 56 -94 59 -1 3 38 28 85 55 47 28 90 53 96 56 11 7 -6 49 -20 49 -4 0 -60 -32 -124 -71z" stroke-width="4"/>
<path d="M2086 2054 c-10 -27 -8 -29 89 -85 52 -30 94 -57 95 -60 0 -4 -8 -10 -17 -14 -44 -16 -173 -99 -173 -110 0 -7 6 -18 14 -24 11 -9 33 0 105 44 51 30 94 55 97 55 3 0 4 -51 3 -112 l-2 -113 27 -3 26 -3 0 149 0 148 -119 72 c-66 40 -124 72 -129 72 -5 0 -13 -7 -16 -16z" stroke-width="4"/>
<path d="M1220 1529 c-7 -11 -9 -23 -6 -26 3 -3 52 -34 108 -67 l103 -62 1 -90 c2 -88 2 -89 28 -92 l26 -3 0 93 0 93 110 64 c61 35 110 67 110 71 0 3 -6 14 -13 24 -12 17 -21 14 -121 -48 -60 -36 -110 -66 -112 -66 -2 0 -52 29 -110 65 -59 36 -108 65 -110 65 -2 0 -8 -9 -14 -21z" stroke-width="4"/>
<path d="M562 989 l3 -130 120 -74 120 -73 13 25 c8 13 12 26 10 27 -2 1 -51 31 -110 65 l-108 63 0 114 0 114 -25 0 -26 0 3 -131z" stroke-width="4"/>
<path d="M2299 1113 c0 -5 0 -53 1 -109 l1 -100 -115 -68 c-115 -67 -115 -68 -100 -91 l15 -24 125 75 124 75 0 125 0 124 -25 0 c-14 0 -25 -3 -26 -7z" stroke-width="4"/>
<path d="M1221 902 c-30 -81 -56 -153 -59 -159 -3 -9 6 -13 25 -13 26 0 31 5 41 38 l11 37 63 -1 c61 -2 62 -2 73 -35 10 -28 17 -35 43 -37 l32 -3 -18 48 c-11 26 -38 99 -62 161 -39 103 -45 112 -69 112 -24 0 -29 -10 -80 -148z m86 50 c-21 -2 -41 -1 -44 2 -3 3 3 26 12 53 9 26 19 55 22 63 3 8 15 -14 28 -50 l22 -65 -40 -3z" stroke-width="4"/>
<path d="M1485 890 l0 -160 28 0 c26 0 27 1 27 60 l0 60 33 0 c30 0 35 -5 62 -60 28 -55 33 -60 63 -60 l33 0 -37 66 -37 67 21 16 c32 25 45 67 31 108 -15 47 -52 63 -146 63 l-78 0 0 -160z m160 100 c17 -14 19 -43 5 -71 -8 -15 -22 -19 -60 -19 l-50 0 0 56 0 57 45 -5 c25 -3 52 -11 60 -18z" stroke-width="4"/>
<path d="M1420 506 c0 -53 -2 -96 -4 -96 -2 0 -44 25 -93 55 l-88 54 -17 -22 c-9 -12 -16 -22 -15 -23 6 -5 238 -144 241 -144 8 0 262 155 268 163 10 16 -2 37 -21 37 -9 0 -61 -27 -115 -60 -54 -33 -101 -60 -103 -60 -2 0 -3 42 -2 93 l2 92 -27 3 -26 3 0 -95z" stroke-width="4"/>
</g>
</svg>
